<svg width="67" height="67" viewBox="0 0 67 67" fill="none" xmlns="http://www.w3.org/2000/svg">
<g filter="url(#filter0_ii_98_83)">
<rect y="0.985352" width="67" height="66.0147" rx="10" fill="#1D71E1"/>
</g>
<g filter="url(#filter1_d_98_83)">
<path d="M32.825 52.63C39.26 52.63 44.93 48.265 44.93 40.75C44.93 33.505 40.16 30.175 34.49 30.175C33.23 30.175 32.24 30.355 31.025 30.85L31.52 25.18H43.445V18.475H24.635L23.78 35.08L27.29 37.375C29.27 36.115 30.17 35.755 32.015 35.755C34.895 35.755 36.92 37.555 36.92 40.93C36.92 44.395 34.895 46.15 31.655 46.15C29 46.15 26.66 44.755 24.77 42.955L21.125 47.995C23.78 50.605 27.47 52.63 32.825 52.63Z" fill="white"/>
</g>
<defs>
<filter id="filter0_ii_98_83" x="0" y="-3.01465" width="67" height="74.0146" filterUnits="userSpaceOnUse" color-interpolation-filters="sRGB">
<feFlood flood-opacity="0" result="BackgroundImageFix"/>
<feBlend mode="normal" in="SourceGraphic" in2="BackgroundImageFix" result="shape"/>
<feColorMatrix in="SourceAlpha" type="matrix" values="0 0 0 0 0 0 0 0 0 0 0 0 0 0 0 0 0 0 127 0" result="hardAlpha"/>
<feOffset dy="5"/>
<feGaussianBlur stdDeviation="2"/>
<feComposite in2="hardAlpha" operator="arithmetic" k2="-1" k3="1"/>
<feColorMatrix type="matrix" values="0 0 0 0 1 0 0 0 0 1 0 0 0 0 1 0 0 0 0.25 0"/>
<feBlend mode="normal" in2="shape" result="effect1_innerShadow_98_83"/>
<feColorMatrix in="SourceAlpha" type="matrix" values="0 0 0 0 0 0 0 0 0 0 0 0 0 0 0 0 0 0 127 0" result="hardAlpha"/>
<feOffset dy="-5"/>
<feGaussianBlur stdDeviation="2"/>
<feComposite in2="hardAlpha" operator="arithmetic" k2="-1" k3="1"/>
<feColorMatrix type="matrix" values="0 0 0 0 0 0 0 0 0 0 0 0 0 0 0 0 0 0 0.25 0"/>
<feBlend mode="normal" in2="effect1_innerShadow_98_83" result="effect2_innerShadow_98_83"/>
</filter>
<filter id="filter1_d_98_83" x="17.125" y="18.4746" width="31.805" height="42.1553" filterUnits="userSpaceOnUse" color-interpolation-filters="sRGB">
<feFlood flood-opacity="0" result="BackgroundImageFix"/>
<feColorMatrix in="SourceAlpha" type="matrix" values="0 0 0 0 0 0 0 0 0 0 0 0 0 0 0 0 0 0 127 0" result="hardAlpha"/>
<feOffset dy="4"/>
<feGaussianBlur stdDeviation="2"/>
<feComposite in2="hardAlpha" operator="out"/>
<feColorMatrix type="matrix" values="0 0 0 0 0 0 0 0 0 0 0 0 0 0 0 0 0 0 0.25 0"/>
<feBlend mode="normal" in2="BackgroundImageFix" result="effect1_dropShadow_98_83"/>
<feBlend mode="normal" in="SourceGraphic" in2="effect1_dropShadow_98_83" result="shape"/>
</filter>
</defs>
</svg>
