<svg width="67" height="67" viewBox="0 0 67 67" fill="none" xmlns="http://www.w3.org/2000/svg">
<g filter="url(#filter0_ii_98_86)">
<rect y="1.94238" width="67" height="65.058" rx="10" fill="#1D71E1"/>
</g>
<g filter="url(#filter1_d_98_86)">
<path d="M34.58 52.63C40.565 52.63 45.605 48.355 45.605 41.245C45.605 34 41.375 30.76 35.795 30.76C33.77 30.76 30.665 32.11 29.045 34.495L29.405 39.67C30.755 37.24 32.6 36.385 34.265 36.385C36.47 36.385 38.315 37.6 38.315 41.245C38.315 45.07 36.515 46.645 34.4 46.645C31.88 46.645 29.36 44.26 29.36 35.53C29.36 27.115 32.24 24.28 35.93 24.28C37.775 24.28 39.845 25.45 40.925 26.62L45.155 21.895C43.04 19.735 39.8 17.89 35.39 17.89C28.46 17.89 22.07 23.425 22.07 35.53C22.07 47.725 28.28 52.63 34.58 52.63Z" fill="white"/>
</g>
<path d="M23 59H34.5H46" stroke="white" stroke-width="3"/>
<defs>
<filter id="filter0_ii_98_86" x="0" y="-2.05762" width="67" height="73.0576" filterUnits="userSpaceOnUse" color-interpolation-filters="sRGB">
<feFlood flood-opacity="0" result="BackgroundImageFix"/>
<feBlend mode="normal" in="SourceGraphic" in2="BackgroundImageFix" result="shape"/>
<feColorMatrix in="SourceAlpha" type="matrix" values="0 0 0 0 0 0 0 0 0 0 0 0 0 0 0 0 0 0 127 0" result="hardAlpha"/>
<feOffset dy="5"/>
<feGaussianBlur stdDeviation="2"/>
<feComposite in2="hardAlpha" operator="arithmetic" k2="-1" k3="1"/>
<feColorMatrix type="matrix" values="0 0 0 0 1 0 0 0 0 1 0 0 0 0 1 0 0 0 0.25 0"/>
<feBlend mode="normal" in2="shape" result="effect1_innerShadow_98_86"/>
<feColorMatrix in="SourceAlpha" type="matrix" values="0 0 0 0 0 0 0 0 0 0 0 0 0 0 0 0 0 0 127 0" result="hardAlpha"/>
<feOffset dy="-5"/>
<feGaussianBlur stdDeviation="2"/>
<feComposite in2="hardAlpha" operator="arithmetic" k2="-1" k3="1"/>
<feColorMatrix type="matrix" values="0 0 0 0 0 0 0 0 0 0 0 0 0 0 0 0 0 0 0.25 0"/>
<feBlend mode="normal" in2="effect1_innerShadow_98_86" result="effect2_innerShadow_98_86"/>
</filter>
<filter id="filter1_d_98_86" x="18.07" y="17.8896" width="31.535" height="42.7402" filterUnits="userSpaceOnUse" color-interpolation-filters="sRGB">
<feFlood flood-opacity="0" result="BackgroundImageFix"/>
<feColorMatrix in="SourceAlpha" type="matrix" values="0 0 0 0 0 0 0 0 0 0 0 0 0 0 0 0 0 0 127 0" result="hardAlpha"/>
<feOffset dy="4"/>
<feGaussianBlur stdDeviation="2"/>
<feComposite in2="hardAlpha" operator="out"/>
<feColorMatrix type="matrix" values="0 0 0 0 0 0 0 0 0 0 0 0 0 0 0 0 0 0 0.25 0"/>
<feBlend mode="normal" in2="BackgroundImageFix" result="effect1_dropShadow_98_86"/>
<feBlend mode="normal" in="SourceGraphic" in2="effect1_dropShadow_98_86" result="shape"/>
</filter>
</defs>
</svg>
