<svg width="67" height="67" viewBox="0 0 67 67" fill="none" xmlns="http://www.w3.org/2000/svg">
<g filter="url(#filter0_ii_98_112)">
<rect width="67" height="67" rx="10" fill="#1D71E1"/>
</g>
<g filter="url(#filter1_d_98_112)">
<path d="M12.12 47H30.92V41.24H25.56V17.2H20.32C18.24 18.52 16.16 19.32 12.96 19.92V24.32H18.44V41.24H12.12V47ZM45.575 47.56C51.855 47.56 56.095 42.2 56.095 31.96C56.095 21.76 51.855 16.68 45.575 16.68C39.295 16.68 35.015 21.72 35.015 31.96C35.015 42.2 39.295 47.56 45.575 47.56ZM45.575 42.04C43.455 42.04 41.735 40.12 41.735 31.96C41.735 23.84 43.455 22.12 45.575 22.12C47.695 22.12 49.375 23.84 49.375 31.96C49.375 40.12 47.695 42.04 45.575 42.04Z" fill="white"/>
</g>
<defs>
<filter id="filter0_ii_98_112" x="0" y="-4" width="67" height="75" filterUnits="userSpaceOnUse" color-interpolation-filters="sRGB">
<feFlood flood-opacity="0" result="BackgroundImageFix"/>
<feBlend mode="normal" in="SourceGraphic" in2="BackgroundImageFix" result="shape"/>
<feColorMatrix in="SourceAlpha" type="matrix" values="0 0 0 0 0 0 0 0 0 0 0 0 0 0 0 0 0 0 127 0" result="hardAlpha"/>
<feOffset dy="5"/>
<feGaussianBlur stdDeviation="2"/>
<feComposite in2="hardAlpha" operator="arithmetic" k2="-1" k3="1"/>
<feColorMatrix type="matrix" values="0 0 0 0 1 0 0 0 0 1 0 0 0 0 1 0 0 0 0.25 0"/>
<feBlend mode="normal" in2="shape" result="effect1_innerShadow_98_112"/>
<feColorMatrix in="SourceAlpha" type="matrix" values="0 0 0 0 0 0 0 0 0 0 0 0 0 0 0 0 0 0 127 0" result="hardAlpha"/>
<feOffset dy="-5"/>
<feGaussianBlur stdDeviation="2"/>
<feComposite in2="hardAlpha" operator="arithmetic" k2="-1" k3="1"/>
<feColorMatrix type="matrix" values="0 0 0 0 0 0 0 0 0 0 0 0 0 0 0 0 0 0 0.25 0"/>
<feBlend mode="normal" in2="effect1_innerShadow_98_112" result="effect2_innerShadow_98_112"/>
</filter>
<filter id="filter1_d_98_112" x="8.12" y="16.6797" width="51.975" height="38.8799" filterUnits="userSpaceOnUse" color-interpolation-filters="sRGB">
<feFlood flood-opacity="0" result="BackgroundImageFix"/>
<feColorMatrix in="SourceAlpha" type="matrix" values="0 0 0 0 0 0 0 0 0 0 0 0 0 0 0 0 0 0 127 0" result="hardAlpha"/>
<feOffset dy="4"/>
<feGaussianBlur stdDeviation="2"/>
<feComposite in2="hardAlpha" operator="out"/>
<feColorMatrix type="matrix" values="0 0 0 0 0 0 0 0 0 0 0 0 0 0 0 0 0 0 0.25 0"/>
<feBlend mode="normal" in2="BackgroundImageFix" result="effect1_dropShadow_98_112"/>
<feBlend mode="normal" in="SourceGraphic" in2="effect1_dropShadow_98_112" result="shape"/>
</filter>
</defs>
</svg>
