<svg width="72" height="72" viewBox="0 0 72 72" fill="none" xmlns="http://www.w3.org/2000/svg">
<g filter="url(#filter0_ii_100_8)">
<rect y="0.390625" width="72" height="71.6096" rx="10" fill="#1D71E1"/>
</g>
<g filter="url(#filter1_d_100_8)">
<path d="M23.89 52H47.11V45.25H40.99C39.46 45.25 37.165 45.475 35.5 45.7C40.63 40.525 45.58 34.18 45.58 28.42C45.58 22.03 41.08 17.89 34.6 17.89C29.83 17.89 26.77 19.555 23.485 23.065L27.85 27.385C29.47 25.675 31.225 24.145 33.52 24.145C36.22 24.145 37.885 25.81 37.885 28.87C37.885 33.73 32.26 39.805 23.89 47.41V52Z" fill="white"/>
</g>
<defs>
<filter id="filter0_ii_100_8" x="0" y="-3.60938" width="72" height="79.6094" filterUnits="userSpaceOnUse" color-interpolation-filters="sRGB">
<feFlood flood-opacity="0" result="BackgroundImageFix"/>
<feBlend mode="normal" in="SourceGraphic" in2="BackgroundImageFix" result="shape"/>
<feColorMatrix in="SourceAlpha" type="matrix" values="0 0 0 0 0 0 0 0 0 0 0 0 0 0 0 0 0 0 127 0" result="hardAlpha"/>
<feOffset dy="5"/>
<feGaussianBlur stdDeviation="2"/>
<feComposite in2="hardAlpha" operator="arithmetic" k2="-1" k3="1"/>
<feColorMatrix type="matrix" values="0 0 0 0 1 0 0 0 0 1 0 0 0 0 1 0 0 0 0.25 0"/>
<feBlend mode="normal" in2="shape" result="effect1_innerShadow_100_8"/>
<feColorMatrix in="SourceAlpha" type="matrix" values="0 0 0 0 0 0 0 0 0 0 0 0 0 0 0 0 0 0 127 0" result="hardAlpha"/>
<feOffset dy="-5"/>
<feGaussianBlur stdDeviation="2"/>
<feComposite in2="hardAlpha" operator="arithmetic" k2="-1" k3="1"/>
<feColorMatrix type="matrix" values="0 0 0 0 0 0 0 0 0 0 0 0 0 0 0 0 0 0 0.25 0"/>
<feBlend mode="normal" in2="effect1_innerShadow_100_8" result="effect2_innerShadow_100_8"/>
</filter>
<filter id="filter1_d_100_8" x="19.485" y="17.8896" width="31.625" height="42.1104" filterUnits="userSpaceOnUse" color-interpolation-filters="sRGB">
<feFlood flood-opacity="0" result="BackgroundImageFix"/>
<feColorMatrix in="SourceAlpha" type="matrix" values="0 0 0 0 0 0 0 0 0 0 0 0 0 0 0 0 0 0 127 0" result="hardAlpha"/>
<feOffset dy="4"/>
<feGaussianBlur stdDeviation="2"/>
<feComposite in2="hardAlpha" operator="out"/>
<feColorMatrix type="matrix" values="0 0 0 0 0 0 0 0 0 0 0 0 0 0 0 0 0 0 0.25 0"/>
<feBlend mode="normal" in2="BackgroundImageFix" result="effect1_dropShadow_100_8"/>
<feBlend mode="normal" in="SourceGraphic" in2="effect1_dropShadow_100_8" result="shape"/>
</filter>
</defs>
</svg>
